<?xml version="1.0" encoding="UTF-8"?>
<svg width="154px" height="72px" viewBox="0 0 154 72" version="1.1" xmlns="http://www.w3.org/2000/svg" xmlns:xlink="http://www.w3.org/1999/xlink">
    <!-- Generator: Sketch 62 (91390) - https://sketch.com -->
    <title>Logo / reverse color</title>
    <desc>Created with Sketch.</desc>
    <g id="Logo-/-reverse-color" stroke="none" stroke-width="1" fill="none" fill-rule="evenodd">
        <g id="Vomar_liggend_diap" fill="#FFFFFF" fill-rule="nonzero">
            <g id="Group">
                <path d="M113.252918,34.0357977 C112.254215,32.2181582 110.236835,34.3953307 109.338003,35.0944228 C107.06096,36.832166 106.242023,37.4114137 103.705318,38.7297017 C101.887678,39.6684825 99.3110246,40.1079118 97.1937743,40.0080415 C94.9966278,39.9081712 93.1789883,39.2690013 91.5211414,37.9706874 C91.1416342,37.6710765 87.7660182,34.9945525 88.1255512,34.5551232 C88.8446174,33.7162127 90.043061,33.0970169 90.8819715,32.3180285 C92.0005188,31.2793774 93.0391699,30.120882 93.9380026,28.9024643 C95.5559014,26.7053178 99.8702983,19.3348898 94.1177691,19.1750973 C91.7009079,19.2749676 89.044358,21.1924773 87.4664073,22.9302205 C86.6674449,23.8290532 86.0083009,24.8277562 85.3291829,25.8064851 C84.9696498,26.3457847 84.6101167,27.464332 84.0708171,26.6653696 C82.373022,24.2085603 80.5953307,26.6853437 79.9162127,28.5229572 C78.9374838,31.139559 79.0573281,34.0957198 77.8788586,36.6523995 C77,38.5699092 76.7003891,41.52607 74.5631647,42.2051881 C73.4046693,42.5647211 74.323476,36.3527886 74.4033722,35.6137484 C74.7229572,33.0770428 75.6417639,30.6601816 76.0212711,28.123476 C76.3608301,25.8064851 73.9439689,23.5693904 71.626978,24.9675746 C68.3312581,26.9450065 66.0542153,30.5403372 64.3164721,33.8959792 C63.3377432,35.7735409 62.5587549,37.7709468 62.0793774,39.828275 C61.7997406,41.0466926 61.3403372,41.6658885 60.1019455,42.2251621 C60.3216602,40.5473411 60.2817121,38.829572 60.3815824,37.1317769 C60.5214008,34.814786 61.0407263,31.8386511 60.261738,29.6015564 C59.602594,27.7040208 56.906096,27.1647211 55.5478599,28.5029831 C53.8101167,30.2207523 52.6116732,32.5577173 51.4931258,34.7149157 C51.2734112,33.0770428 51.4931258,31.5190661 50.0749676,30.3805447 C47.0588846,28.2632944 45.0415045,31.5989624 43.7032425,34.0757458 C43.523476,32.6376135 44.861738,30.480415 43.2238651,29.6215305 C41.7857328,28.8824903 41.166537,29.0822309 40.5872892,30.6601816 C39.7284047,32.9771725 39.5686122,35.7935149 39.1491569,38.2103761 C38.6697795,41.1066148 38.170428,44.0228275 37.7509728,46.9190661 C37.49131,48.8166018 36.832166,51.0736706 39.2090791,51.8326848 C41.166537,52.4518807 41.5660182,49.9351492 42.0254215,48.5769131 C42.9442283,45.9603113 43.8031128,43.3237354 44.8417639,40.7470817 C45.5608301,38.9094682 46.2798962,36.5125811 47.5182879,34.9546044 C48.536965,37.7709468 42.9841764,50.554345 48.7167315,49.8153048 C50.0549935,49.8153048 50.3546044,47.6780804 50.7341115,46.6993515 C51.4731518,44.7818418 52.1922179,42.864332 52.9512322,40.9468223 C53.9499351,38.4300908 54.90869,34.6150454 56.8861219,32.7574578 C57.3055772,36.4726329 56.4666667,40.7071336 56.1670558,44.4223087 C56.0472114,45.9603113 55.907393,47.9776913 57.6850843,48.6368353 C59.7024643,49.3758755 62.2391699,47.0389105 63.0980545,45.540856 C63.6773022,46.4596628 64.276524,47.4583658 65.4949416,47.4583658 C68.0116732,47.4383917 69.290013,45.7605707 70.3286641,43.7431907 C71.2474708,48.6368353 76.7203632,45.201297 78.3782101,42.6046693 C78.6178988,43.843061 79.0972763,44.522179 80.4555123,44.6619974 C81.3343709,44.7618677 81.9136187,44.7019455 82.1732815,43.7831388 C82.9322957,41.1265888 82.4728923,38.1105058 83.8910506,35.6337224 C85.5289235,37.49131 86.8072633,39.488716 88.8246433,41.0067445 C91.381323,42.9242542 94.9966278,44.2225681 98.3922179,44.0028534 C101.448249,43.8031128 104.50428,42.9841764 107.680156,40.9268482 C109.258106,39.9481193 114.271595,36.0731518 113.252918,34.0357977 C113.153048,33.8360571 113.352789,34.2355383 113.252918,34.0357977 M71.626978,31.0996109 C70.2487678,35.0944228 69.2500649,39.4088197 66.0142672,42.4448768 C65.6547341,40.1478599 66.973022,37.3714656 67.8718547,35.3540856 C68.7706874,33.3566796 70.0490272,30.3805447 72.1263294,29.3019455 C72.1063554,29.9011673 71.8267185,30.5403372 71.626978,31.0996109 C71.5870298,31.2194553 71.7068742,30.8399481 71.626978,31.0996109 M93.0990921,23.3896239 C93.7981842,24.5481193 88.9444877,30.5003891 87.4064851,31.1795071 C87.1468223,31.2993515 87.1268482,30.9198444 87.0669261,30.7600519 C86.5476005,29.1821012 91.1216602,23.1499351 93.0990921,23.3896239" id="Shape"></path>
                <path d="M39.6485084,1.01867704 C38.8695201,0.339559014 38.0505837,0 37.1916991,0 C34.135668,0.0199740597 31.4391699,4.33437095 30.0010376,6.65136187 L29.9211414,6.79118029 C24.9476005,14.740856 20.8928664,23.9289235 17.1577173,35.7136187 C15.7595331,40.1079118 14.4612192,44.8817121 12.9631647,51.1535668 C12.4837873,53.1309987 11.9245136,55.4280156 11.4251621,57.6850843 C11.2853437,58.3242542 11.1255512,58.9833982 10.9857328,59.6225681 L10.6861219,60.9608301 C10.6461738,61.1605707 10.6062257,61.4402075 10.5662776,61.7198444 C10.4664073,62.3590143 10.366537,63.1380026 10.0869001,63.5574578 C9.56757458,62.3989624 9.38780804,60.940856 9.2080415,59.5426719 C9.14811933,59.0632944 9.08819715,58.6238651 9.02827497,58.2044099 L8.84850843,57.0858625 C8.40907912,54.3294423 7.96964981,51.4731518 7.57016861,48.6568093 C6.71128405,42.5647211 6.21193256,36.2529183 5.75252918,30.7001297 C5.59273671,28.8225681 5.51284047,26.9250324 5.41297017,25.0874189 C5.37302205,24.1686122 5.33307393,23.2298314 5.27315175,22.3110246 C5.19325551,20.9328145 4.83372244,20.433463 3.53540856,19.9341115 C3.19584955,19.7942931 2.69649805,19.6345006 2.19714656,19.6345006 C1.73774319,19.6345006 1.338262,19.7942931 1.01867704,20.093904 C-0.059922179,21.1125811 -0.0199740597,22.5307393 0.0199740597,23.9089494 C0.0199740597,24.088716 0.0199740597,24.2684825 0.0399481193,24.448249 C0.0798962387,26.9849546 0.299610895,29.5616083 0.519325551,32.0383917 C0.559273671,32.4178988 0.57924773,32.797406 0.61919585,33.1769131 C1.17846952,39.8682231 1.91750973,46.3997406 2.77639429,52.5916991 C3.27574578,56.246952 3.75512322,59.1831388 4.27444877,61.8596628 C4.35434501,62.2990921 4.43424125,62.7784695 4.51413748,63.2977951 C4.87367056,65.5948119 5.33307393,68.4311284 6.79118029,69.8692607 C7.96964981,71.0277562 9.88715953,71.8466926 11.3652399,71.8466926 C12.8433204,71.8466926 13.5623865,68.5110246 13.9019455,66.9330739 C13.9418936,66.7133593 13.9818418,66.5335927 14.0217899,66.3937743 C14.6409857,63.8370947 15.2601816,61.2204929 15.8594034,58.6837873 C16.2788586,56.92607 16.6983139,55.1084306 17.1177691,53.3307393 C19.3948119,43.863035 21.6119326,36.2129702 24.10869,29.2619974 C25.766537,24.6280156 27.444358,20.6731518 29.2020752,17.1577173 C30.5003891,14.5610895 31.6189364,12.5037613 32.7374838,10.6661479 C33.3966278,9.58754864 34.0357977,8.62879377 34.6749676,7.72996109 C34.7149157,7.67003891 34.7748379,7.63009079 34.8547341,7.63009079 C35.0944228,7.63009079 35.4339818,7.92970169 35.6536965,8.08949416 L35.7136187,8.14941634 C36.3527886,8.68871595 37.0518807,8.98832685 37.6710765,8.96835279 C38.4500649,8.96835279 39.0492866,8.48897536 39.3888457,7.63009079 C40.7071336,4.25447471 40.7870298,2.01738003 39.6485084,1.01867704" id="Path"></path>
                <path d="M37.6710765,34.7748379 C37.3315175,32.3779507 35.1743191,30.6002594 32.7175097,30.6002594 C30.7800259,30.6002594 27.9836576,32.3380026 26.6254215,33.6363165 C22.5706874,37.49131 20.773022,44.3623865 21.1924773,49.7753567 C21.3922179,52.2721141 23.4095979,54.0697795 25.7066148,54.7289235 C28.802594,55.6077821 30.9997406,53.4505837 32.5976654,51.0736706 C35.6137484,46.6594034 38.4500649,40.2876783 37.6710765,34.7748379 C37.5512322,33.9758755 37.8108949,35.7535668 37.6710765,34.7748379 M33.6962387,37.9307393 C33.1968872,42.0653696 31.2793774,46.5795071 28.6827497,49.8352789 C27.6440986,51.1535668 25.9662776,52.4718547 25.3870298,50.2347601 C25.1473411,49.3159533 24.5680934,46.7193256 25.2671855,45.9403372 C25.786511,45.3610895 25.7265888,44.9815824 26.1460441,44.0428016 C26.4656291,43.2837873 26.7652399,42.5647211 27.0848249,41.8256809 C27.8038911,40.1478599 28.7226978,38.8894942 29.781323,37.4114137 C30.6801556,36.153048 31.9185473,35.2941634 33.136965,34.3753567 C33.9758755,33.7361868 33.7561608,37.4313878 33.6962387,37.9307393 C33.5963684,38.7896239 33.7761349,37.3514916 33.6962387,37.9307393" id="Shape"></path>
            </g>
            <g id="Group" transform="translate(33.556420, 58.523995)">
                <polygon id="Path" points="0 0.259662776 2.73644617 0.259662776 4.7538262 5.87237354 6.77120623 0.259662776 9.44773022 0.259662776 5.85239948 9.18806744 3.57535668 9.18806744"></polygon>
                <path d="M9.44773022,4.71387808 L9.44773022,4.69390402 C9.44773022,2.15719844 11.5050584,0.0798962387 14.2215305,0.0798962387 C16.9380026,0.0798962387 18.9753567,2.11725032 18.9753567,4.6539559 L18.9753567,4.67392996 C18.9753567,7.21063554 16.9180285,9.28793774 14.2015564,9.28793774 C11.4850843,9.28793774 9.44773022,7.25058366 9.44773022,4.71387808 Z M16.4586252,4.71387808 L16.4586252,4.69390402 C16.4586252,3.39559014 15.5398184,2.29701686 14.2015564,2.29701686 C12.8433204,2.29701686 11.9444877,3.37561608 11.9444877,4.6539559 L11.9444877,4.67392996 C11.9444877,5.95226978 12.8632944,7.07081712 14.2215305,7.07081712 C15.5597925,7.09079118 16.4586252,5.9922179 16.4586252,4.71387808 Z" id="Shape"></path>
                <path d="M19.9540856,4.71387808 L19.9540856,4.69390402 C19.9540856,2.15719844 22.0114137,0.0798962387 24.7278859,0.0798962387 C27.444358,0.0798962387 29.4817121,2.11725032 29.4817121,4.6539559 L29.4817121,4.67392996 C29.4817121,7.21063554 27.4243839,9.28793774 24.7079118,9.28793774 C21.9914397,9.28793774 19.9540856,7.25058366 19.9540856,4.71387808 Z M26.9649805,4.71387808 L26.9649805,4.69390402 C26.9649805,3.39559014 26.0461738,2.29701686 24.7079118,2.29701686 C23.3496757,2.29701686 22.4508431,3.37561608 22.4508431,4.6539559 L22.4508431,4.67392996 C22.4508431,5.95226978 23.3696498,7.07081712 24.7278859,7.07081712 C26.0861219,7.09079118 26.9649805,5.9922179 26.9649805,4.71387808 Z" id="Shape"></path>
                <path d="M30.7600519,0.259662776 L34.9546044,0.259662776 C36.3128405,0.259662776 37.2516213,0.61919585 37.830869,1.21841764 C38.3501946,1.73774319 38.6098573,2.41686122 38.6098573,3.27574578 L38.6098573,3.29571984 C38.6098573,4.6539559 37.8907912,5.55278859 36.7922179,6.03216602 L38.9094682,9.12814527 L36.0931258,9.12814527 L34.3154345,6.45162127 L33.2368353,6.45162127 L33.2368353,9.12814527 L30.7600519,9.12814527 L30.7600519,0.259662776 Z M34.8347601,4.51413748 C35.6536965,4.51413748 36.153048,4.11465629 36.153048,3.45551232 L36.153048,3.43553826 C36.153048,2.73644617 35.6337224,2.3769131 34.8347601,2.3769131 L33.2168612,2.3769131 L33.2168612,4.51413748 L34.8347601,4.51413748 L34.8347601,4.51413748 Z" id="Shape"></path>
                <path d="M39.848249,0.259662776 L43.2837873,0.259662776 C46.4396887,0.259662776 48.2573281,2.0773022 48.2573281,4.63398184 L48.2573281,4.6539559 C48.2573281,7.21063554 46.3997406,9.10817121 43.2238651,9.10817121 L39.848249,9.10817121 L39.848249,0.259662776 Z M42.3050584,2.41686122 L42.3050584,6.9309987 L43.3037613,6.9309987 C44.7818418,6.9309987 45.7605707,6.11206226 45.7605707,4.69390402 L45.7605707,4.67392996 C45.7605707,3.25577173 44.7818418,2.41686122 43.3037613,2.41686122 L42.3050584,2.41686122 Z" id="Shape"></path>
                <polygon id="Path" points="49.535668 0.259662776 56.6464332 0.259662776 56.6464332 2.33696498 51.9525292 2.33696498 51.9525292 3.69520104 56.2070039 3.69520104 56.2070039 5.63268482 51.9525292 5.63268482 51.9525292 7.030869 56.7263294 7.030869 56.7263294 9.12814527 49.535668 9.12814527"></polygon>
                <polygon id="Path" points="57.9846952 0.259662776 65.0954604 0.259662776 65.0954604 2.33696498 60.4015564 2.33696498 60.4015564 3.69520104 64.6560311 3.69520104 64.6560311 5.63268482 60.4015564 5.63268482 60.4015564 7.030869 65.1553826 7.030869 65.1553826 9.12814527 57.9647211 9.12814527 57.9647211 0.259662776"></polygon>
                <polygon id="Path" points="66.4337224 0.259662776 68.8905318 0.259662776 68.8905318 6.97094682 73.1849546 6.97094682 73.1849546 9.12814527 66.4536965 9.12814527 66.4536965 0.259662776"></polygon>
            </g>
            <g id="Group" transform="translate(108.059663, 58.723735)">
                <polygon id="Path" points="0.0798962387 0.059922179 1.73774319 0.059922179 4.43424125 4.25447471 7.1307393 0.059922179 8.78858625 0.059922179 8.78858625 8.90843061 7.2306096 8.90843061 7.2306096 2.55667964 4.43424125 6.73125811 4.37431907 6.73125811 1.61789883 2.59662776 1.61789883 8.92840467 0.0798962387 8.92840467"></polygon>
                <path d="M14.2015564,0 L15.6396887,0 L19.5346304,8.92840467 L17.8967575,8.92840467 L16.9979248,6.79118029 L12.8033722,6.79118029 L11.8845655,8.92840467 L10.2866407,8.92840467 L14.2015564,0 Z M16.418677,5.39299611 L14.8806744,1.85758755 L13.3626459,5.39299611 L16.418677,5.39299611 Z" id="Shape"></path>
                <path d="M21.0526589,0.059922179 L25.0075227,0.059922179 C26.12607,0.059922179 26.9849546,0.379507134 27.5642023,0.938780804 C28.0236057,1.41815824 28.3032425,2.0773022 28.3032425,2.85629053 L28.3032425,2.87626459 C28.3032425,4.33437095 27.4243839,5.21322957 26.2059663,5.55278859 L28.6028534,8.90843061 L26.7652399,8.90843061 L24.5880674,5.81245136 L22.6306096,5.81245136 L22.6306096,8.90843061 L21.0726329,8.90843061 L21.0726329,0.059922179 L21.0526589,0.059922179 Z M24.8876783,4.4542153 C26.0062257,4.4542153 26.7053178,3.87496757 26.7053178,2.97613489 L26.7053178,2.95616083 C26.7053178,1.99740597 26.0261997,1.49805447 24.8677043,1.49805447 L22.6106355,1.49805447 L22.6106355,4.47418936 L24.8876783,4.47418936 L24.8876783,4.4542153 Z" id="Shape"></path>
                <polygon id="Path" points="30.1808042 0.059922179 31.7387808 0.059922179 31.7387808 4.51413748 35.9533074 0.059922179 37.8708171 0.059922179 34.1756161 3.87496757 38.0306096 8.92840467 36.153048 8.92840467 33.136965 4.93359274 31.7587549 6.35175097 31.7587549 8.92840467 30.2007782 8.92840467 30.2007782 0.059922179"></polygon>
                <polygon id="Path" points="41.4261997 1.49805447 38.6098573 1.49805447 38.6098573 0.059922179 45.8005188 0.059922179 45.8005188 1.49805447 42.9841764 1.49805447 42.9841764 8.90843061 41.4062257 8.90843061 41.4062257 1.49805447"></polygon>
            </g>
        </g>
    </g>
</svg>